<?xml version="1.0" encoding="utf-8"?>
<!-- Generator: Adobe Illustrator 20.1.0, SVG Export Plug-In . SVG Version: 6.00 Build 0)  -->
<svg version="1.1" id="Layer_1" xmlns="http://www.w3.org/2000/svg" xmlns:xlink="http://www.w3.org/1999/xlink" x="0px" y="0px"
	 viewBox="0 0 24 24" style="enable-background:new 0 0 24 24;" xml:space="preserve">
<style type="text/css">
	.st0{fill:#FFFFFF;}
	.st1{fill:none;}
</style>
<g id="XBmyhc.tif">
	<g>
		<path class="st0" d="M21.1,17.4c-0.1,0.1-0.2,0.2-0.3,0.3c-1.5,1.5-2.9,3-4.4,4.4c-0.2,0.2-0.4,0.3-0.6,0.3c-4.3,0-8.6,0-12.9,0
			c-0.5,0-0.6-0.1-0.6-0.6c0-6.5,0-13,0-19.5c0-0.2,0.1-0.4,0.2-0.6c6.2,0,12.4,0,18.6,0C21.1,6.9,21.1,12.2,21.1,17.4z M3.2,2.7
			c0,6.3,0,12.6,0,18.8c4.1,0,8.2,0,12.2,0c0-1.4,0-2.7,0-4.1c0-0.5,0.1-0.6,0.6-0.6c0.5,0,1,0,1.5,0c0.9,0,1.7,0,2.6,0
			c0-4.7,0-9.4,0-14.1C14.4,2.7,8.8,2.7,3.2,2.7z M19.3,17.8c-1,0-2,0-3,0c0,1,0,2,0,3C17.4,19.7,18.4,18.8,19.3,17.8z"/>
		<path class="st1" d="M3.2,2.7c5.7,0,11.3,0,16.9,0c0,4.7,0,9.4,0,14.1c-0.9,0-1.7,0-2.6,0c-0.5,0-1,0-1.5,0
			c-0.5,0-0.6,0.1-0.6,0.6c0,1.3,0,2.7,0,4.1c-4.1,0-8.2,0-12.2,0C3.2,15.2,3.2,9,3.2,2.7z M11.6,10.7c-0.9,0-1.7,0-2.6,0
			c-0.7,0-1.4,0-2.1,0c-0.3,0-0.5,0.2-0.5,0.5c0,0.3,0.2,0.5,0.5,0.5c0.1,0,0.2,0,0.3,0c2.8,0,5.6,0,8.4,0c0.3,0,0.5,0,0.8,0
			c0.3,0,0.4-0.2,0.4-0.5c0-0.3-0.2-0.4-0.4-0.5c-0.1,0-0.2,0-0.3,0C14.6,10.7,13.1,10.7,11.6,10.7z M11.6,13.5c-0.8,0-1.5,0-2.3,0
			c-0.8,0-1.6,0-2.4,0c-0.3,0-0.5,0.1-0.5,0.5c0,0.3,0.2,0.5,0.5,0.5c0.1,0,0.2,0,0.3,0c2.7,0,5.4,0,8.1,0c0.4,0,0.7,0,1.1,0
			c0.2,0,0.4-0.2,0.4-0.4c0-0.1-0.1-0.4-0.2-0.5c-0.1-0.1-0.3-0.1-0.4-0.1C14.6,13.5,13.1,13.5,11.6,13.5z M12.6,8.8
			c1.2,0,2.5,0,3.7,0c0.3,0,0.5-0.1,0.6-0.5c0-0.3-0.2-0.5-0.6-0.5c-0.6,0-1.2,0-1.7,0c-1.9,0-3.7,0-5.6,0C8.5,7.8,8.3,8,8.3,8.3
			c0,0.3,0.3,0.5,0.6,0.5C10.1,8.8,11.3,8.8,12.6,8.8z"/>
		<path class="st0" d="M19.3,17.8c-1,1-2,2-3,3c0-1,0-1.9,0-3C17.4,17.8,18.4,17.8,19.3,17.8z"/>
		<path class="st0" d="M11.6,10.7c1.5,0,3,0,4.4,0c0.1,0,0.2,0,0.3,0c0.3,0,0.4,0.2,0.4,0.5c0,0.3-0.2,0.4-0.4,0.5
			c-0.3,0-0.5,0-0.8,0c-2.8,0-5.6,0-8.4,0c-0.1,0-0.2,0-0.3,0c-0.3,0-0.5-0.2-0.5-0.5c0-0.3,0.2-0.5,0.5-0.5c0.7,0,1.4,0,2.1,0
			C9.9,10.7,10.8,10.7,11.6,10.7z"/>
		<path class="st0" d="M11.6,13.5c1.5,0,3,0,4.5,0c0.1,0,0.3,0,0.4,0.1c0.1,0.1,0.3,0.3,0.2,0.5c0,0.2-0.2,0.4-0.4,0.4
			c-0.4,0.1-0.7,0-1.1,0c-2.7,0-5.4,0-8.1,0c-0.1,0-0.2,0-0.3,0c-0.3,0-0.5-0.2-0.5-0.5c0-0.3,0.2-0.5,0.5-0.5c0.8,0,1.6,0,2.4,0
			C10.1,13.5,10.9,13.5,11.6,13.5z"/>
		<path class="st0" d="M12.6,8.8c-1.2,0-2.4,0-3.7,0c-0.3,0-0.5-0.1-0.6-0.5c0-0.3,0.2-0.5,0.6-0.5c1.9,0,3.7,0,5.6,0
			c0.6,0,1.2,0,1.7,0c0.4,0,0.6,0.2,0.6,0.5c0,0.3-0.2,0.5-0.6,0.5C15,8.8,13.8,8.8,12.6,8.8z"/>
	</g>
</g>
</svg>
