<?xml version="1.0" encoding="utf-8"?>
<!-- Generator: Adobe Illustrator 20.1.0, SVG Export Plug-In . SVG Version: 6.00 Build 0)  -->
<svg version="1.1" id="Layer_1" xmlns="http://www.w3.org/2000/svg" xmlns:xlink="http://www.w3.org/1999/xlink" x="0px" y="0px"
	 viewBox="0 0 24 24" style="enable-background:new 0 0 24 24;" xml:space="preserve">
<style type="text/css">
	.st0{fill:none;}
	.st1{fill:#FFFFFF;}
	.st2{fill:none;stroke:#FFFFFF;stroke-miterlimit:10;}
</style>
<g id="EYoZ4p.tif">
	<g>
		<path class="st0" d="M14,3.4c1.4,0.9,2.7,1.9,4,2.8c-2.9,4.2-5.9,8.4-8.8,12.5c-1.3-0.9-2.7-1.9-4-2.8C8.2,11.8,11.1,7.6,14,3.4z
			 M9.2,18.3c2.8-4,5.6-8,8.4-12c-1.2-0.8-2.3-1.6-3.5-2.5c-2.8,4-5.6,8-8.4,12C6.9,16.7,8,17.5,9.2,18.3z"/>
		<path class="st1" d="M5.2,16.2c1.3,0.9,2.6,1.8,3.9,2.7c-1.6,1-3.3,1.9-4.9,2.9C4.5,19.9,4.8,18.1,5.2,16.2z M8.5,18.9
			c-1.1-0.7-2.1-1.4-3.1-2.2c-0.2,1-0.4,1.9-0.5,2.8c0,0.1,0,0.2,0.1,0.2c0.3,0.2,0.7,0.4,1,0.7c0.3-0.2,0.6-0.3,0.9-0.5
			c0.2-0.1,0.4-0.2,0.6-0.4C7.8,19.3,8.1,19.1,8.5,18.9z"/>
		<path class="st1" d="M14.2,3.2c0.4-0.5,0.7-1,1.1-1.5c0.5-0.6,1.6-0.8,2.3-0.3c0.4,0.3,0.8,0.6,1.2,0.9c0.7,0.5,0.9,1.5,0.4,2.3
			c-0.3,0.5-0.6,0.9-1,1.4C16.8,5.1,15.5,4.2,14.2,3.2z M14.6,3.1c1.2,0.8,2.3,1.6,3.5,2.5c0.3-0.4,0.6-0.8,0.8-1.2
			c0.4-0.6,0.3-1.4-0.3-1.9c-0.4-0.3-0.9-0.6-1.3-0.9c-0.6-0.4-1.4-0.3-1.9,0.4C15.1,2.4,14.9,2.7,14.6,3.1z"/>
		<path class="st2" d="M9.2,18.3c-1.2-0.8-2.3-1.6-3.5-2.5c2.8-4,5.6-8,8.4-12c1.2,0.8,2.3,1.6,3.5,2.5C14.8,10.3,12,14.3,9.2,18.3z
			"/>
		<path class="st0" d="M8.5,18.9c-0.4,0.2-0.7,0.4-1,0.6c-0.2,0.1-0.4,0.3-0.6,0.4c-0.3,0.2-0.6,0.3-0.9,0.5c-0.3-0.2-0.7-0.4-1-0.7
			c-0.1,0-0.1-0.1-0.1-0.2c0.2-0.9,0.3-1.8,0.5-2.8C6.4,17.5,7.4,18.2,8.5,18.9z"/>
		<path class="st2" d="M14.6,3.1c0.3-0.4,0.5-0.8,0.8-1.1c0.5-0.6,1.3-0.8,1.9-0.4c0.5,0.3,0.9,0.6,1.3,0.9c0.6,0.4,0.7,1.2,0.3,1.9
			c-0.2,0.4-0.5,0.8-0.8,1.2C16.9,4.8,15.8,4,14.6,3.1z"/>
	</g>
</g>
</svg>
