<?xml version="1.0" encoding="utf-8"?>
<!-- Generator: Adobe Illustrator 20.1.0, SVG Export Plug-In . SVG Version: 6.00 Build 0)  -->
<svg version="1.1" id="Layer_1" xmlns="http://www.w3.org/2000/svg" xmlns:xlink="http://www.w3.org/1999/xlink" x="0px" y="0px"
	 viewBox="0 0 24 24" style="enable-background:new 0 0 24 24;" xml:space="preserve">
<style type="text/css">
	.st0{fill:#FFFFFF;stroke:#FFFFFF;stroke-width:0.25;stroke-miterlimit:10;}
	.st1{fill:none;stroke:#FFFFFF;stroke-miterlimit:10;}
</style>
<g id="uVKMkH.tif">
	<g>
		<path class="st0" d="M22.8,23c-0.7-0.1-1.4-0.3-2.1-0.4c-1.2-0.2-2.4-0.5-3.5-0.7c-0.1,0-0.3,0-0.5,0.1c-6.2,3-13.6-0.4-15.3-7.1
			C-0.2,8.8,3.6,2.7,9.7,1.4c0.5-0.1,1.1-0.2,1.6-0.2c0.4,0,0.8,0,1.2,0c0.1,0,0.2,0,0.2,0c0.9,0.1,1.7,0.2,2.5,0.5
			c4,1.4,6.5,4.2,7.4,8.4c0.1,0.5,0.1,0.9,0.2,1.4c0,0.4,0,0.8,0,1.2c0,0.1,0,0.2,0,0.2c-0.1,1.4-0.5,2.7-1.1,4
			c-0.1,0.1-0.1,0.3-0.1,0.4c0.2,1.2,0.5,2.4,0.7,3.6C22.5,21.6,22.7,22.3,22.8,23C22.8,22.9,22.8,23,22.8,23z M21.8,22
			c0-0.1,0-0.2,0-0.2c-0.3-1.5-0.6-3-0.9-4.5c0-0.1,0-0.3,0-0.4c1.1-2.1,1.4-4.3,1-6.6c-1.2-6.5-8-10.1-14.1-7.5
			C2.6,5,0.3,11.2,2.7,16.5c2.4,5.2,8.9,7.4,13.9,4.7C16.7,21,16.9,21,17,21c0.5,0.1,0.9,0.2,1.4,0.3C19.5,21.5,20.6,21.8,21.8,22z"
			/>
		<path class="st1" d="M21.8,22c-1.2-0.2-2.3-0.5-3.5-0.7c-0.5-0.1-0.9-0.2-1.4-0.3c-0.1,0-0.3,0-0.4,0.1c-5,2.7-11.5,0.6-13.9-4.7
			C0.3,11.2,2.6,5,7.9,2.7c6-2.6,12.9,1,14.1,7.5c0.4,2.3,0.1,4.5-1,6.6c-0.1,0.1-0.1,0.3,0,0.4c0.3,1.5,0.6,3,0.9,4.5
			C21.8,21.9,21.8,21.9,21.8,22z M14,10.6c0-0.4-0.1-0.7-0.3-1c-0.4-0.5-0.9-0.7-1.5-0.8C11,8.6,10,9.2,9.8,10.3
			c0,0.2,0,0.3,0.3,0.4c0.4,0.1,0.5,0,0.6-0.2c0.1-0.2,0.1-0.3,0.2-0.5c0.3-0.4,0.7-0.6,1.2-0.6c0.5,0.1,0.9,0.3,1.1,0.8
			c0.2,0.5,0,0.9-0.4,1.3c-0.2,0.2-0.4,0.4-0.7,0.6c-0.4,0.4-0.6,0.9-0.6,1.5c0,0.2,0.1,0.3,0.3,0.3c0.2,0,0.5,0.1,0.5-0.3
			c0-0.4,0.2-0.8,0.5-1.1c0.3-0.2,0.5-0.5,0.8-0.8C13.8,11.4,14,11,14,10.6z M11.9,14.5c-0.4,0-0.4,0-0.4,0.4c0,0.4,0,0.4,0.4,0.4
			c0.5,0,0.5,0,0.5-0.5C12.3,14.5,12.3,14.5,11.9,14.5z"/>
		<path class="st0" d="M14,10.6c0,0.4-0.1,0.9-0.5,1.2c-0.3,0.3-0.5,0.5-0.8,0.8c-0.3,0.3-0.5,0.6-0.5,1.1c0,0.4-0.3,0.3-0.5,0.3
			c-0.2,0-0.3-0.1-0.3-0.3c0-0.6,0.2-1.1,0.6-1.5c0.2-0.2,0.4-0.4,0.7-0.6c0.4-0.3,0.6-0.8,0.4-1.3C13,9.7,12.6,9.5,12,9.4
			c-0.5,0-0.9,0.1-1.2,0.6c-0.1,0.1-0.1,0.3-0.2,0.5c-0.1,0.2-0.2,0.3-0.6,0.2c-0.2,0-0.3-0.2-0.3-0.4C10,9.2,11,8.6,12.2,8.7
			c0.6,0.1,1.2,0.3,1.5,0.8C13.9,9.8,14,10.2,14,10.6z"/>
		<path class="st0" d="M11.9,14.5c0.4,0,0.4,0,0.4,0.4c0,0.5,0,0.5-0.5,0.5c-0.4,0-0.4,0-0.4-0.4C11.4,14.5,11.4,14.5,11.9,14.5z"/>
	</g>
</g>
</svg>
