<?xml version="1.0" encoding="utf-8"?>
<!-- Generator: Adobe Illustrator 20.1.0, SVG Export Plug-In . SVG Version: 6.00 Build 0)  -->
<svg version="1.1" id="Layer_1" xmlns="http://www.w3.org/2000/svg" xmlns:xlink="http://www.w3.org/1999/xlink" x="0px" y="0px"
	 viewBox="0 0 24 24" style="enable-background:new 0 0 24 24;" xml:space="preserve">
<style type="text/css">
	.st0{fill:#FFFFFF;}
</style>
<g id="_x39_rVl8Z.tif">
	<g>
		<path class="st0" d="M2.8,12.1c0.2-0.2,0.4-0.5,0.6-0.7C4.8,10,6.2,8.5,7.6,7c0.1-0.1,0.2-0.3,0.2-0.5c0-0.2-0.2-0.4-0.4-0.4
			C7.1,6,7,6.1,6.8,6.3c-1.7,1.8-3.3,3.6-5,5.4c-0.3,0.3-0.3,0.6,0,0.9c1.3,1.4,2.6,2.8,3.9,4.3c0.4,0.4,0.7,0.8,1.1,1.2
			c0.2,0.2,0.3,0.2,0.6,0.2c0.2-0.1,0.3-0.2,0.4-0.4c0-0.2-0.1-0.4-0.2-0.5c-1-1.1-2.1-2.3-3.1-3.4C3.9,13.3,3.4,12.7,2.8,12.1z"/>
		<path class="st0" d="M14.8,4.5c0.4,0.2,0.5,0.4,0.3,0.9c-1.8,4.6-3.7,9.2-5.5,13.9c0,0.1,0,0.1-0.1,0.2c-0.1,0.3-0.4,0.4-0.7,0.3
			c-0.3-0.1-0.4-0.4-0.3-0.7c0.3-0.7,0.5-1.3,0.8-2c1.6-4,3.2-8,4.7-12c0.1-0.2,0.2-0.4,0.4-0.5C14.6,4.5,14.7,4.5,14.8,4.5z"/>
		<path class="st0" d="M22.1,12.2c-0.1,0.2-0.2,0.3-0.3,0.5c-1.6,1.8-3.3,3.6-4.9,5.4c-0.2,0.2-0.4,0.3-0.6,0.2
			c-0.2-0.1-0.3-0.2-0.4-0.4c0-0.2,0.1-0.4,0.2-0.5c1-1.1,2-2.2,3-3.3c0.5-0.6,1.1-1.2,1.6-1.7c0,0,0.1-0.1,0.1-0.1
			c-0.5-0.6-1.1-1.2-1.6-1.7c-1.1-1.1-2.1-2.3-3.2-3.4c-0.2-0.2-0.2-0.4-0.1-0.6C16.1,6.1,16.3,6,16.5,6c0.1,0,0.3,0.1,0.4,0.2
			c1.7,1.8,3.4,3.7,5.1,5.5C22,11.8,22,12,22.1,12.2C22.1,12.1,22.1,12.1,22.1,12.2z"/>
		<path class="st0" d="M2.8,12.1c0.5,0.6,1.1,1.2,1.6,1.8c1,1.1,2.1,2.3,3.1,3.4c0.1,0.1,0.2,0.3,0.2,0.5c0,0.2-0.2,0.4-0.4,0.4
			c-0.2,0.1-0.4,0-0.6-0.2c-0.4-0.4-0.7-0.8-1.1-1.2c-1.3-1.4-2.6-2.8-3.9-4.3c-0.3-0.3-0.3-0.6,0-0.9c1.7-1.8,3.3-3.6,5-5.4
			C7,6.1,7.1,6,7.4,6c0.2,0.1,0.3,0.2,0.4,0.4c0,0.2-0.1,0.4-0.2,0.5c-1.4,1.5-2.7,3-4.1,4.5C3.3,11.7,3.1,11.9,2.8,12.1z"/>
	</g>
</g>
</svg>
