<?xml version="1.0" encoding="utf-8"?>
<!-- Generator: Adobe Illustrator 20.1.0, SVG Export Plug-In . SVG Version: 6.00 Build 0)  -->
<svg version="1.1" id="Layer_1" xmlns="http://www.w3.org/2000/svg" xmlns:xlink="http://www.w3.org/1999/xlink" x="0px" y="0px"
	 viewBox="0 0 24 24" style="enable-background:new 0 0 24 24;" xml:space="preserve">
<style type="text/css">
	.st0{fill:#FFFFFF;}
	.st1{fill:none;}
</style>
<g id="_x35_HuQDt.tif">
	<g>
		<path class="st0" d="M15.1,13.9c0,0.2,0,0.4,0,0.6c0,0.4,0.2,0.6,0.6,0.6c0.3,0,0.6-0.2,0.6-0.6c0-0.3,0-0.5,0-0.8
			c0-0.2,0.1-0.3,0.2-0.4c2-1.7,2.9-3.8,2.5-6.4c-0.7-4.3-5.3-6.8-9.3-5C6.8,3.2,5.2,6.3,5.8,9.3c0.3,1.7,1.2,3,2.5,4.1
			c0.1,0.1,0.1,0.1,0.1,0.3c0,0.3,0,0.6,0,0.9c0,0.4,0.2,0.6,0.6,0.6c0.3,0,0.6-0.2,0.6-0.6c0-0.3,0-0.6,0-0.9
			c0-0.5-0.2-0.9-0.6-1.2c-1.7-1.3-2.4-3.1-2.1-5.3c0.4-3,3.2-5,6.2-4.6c3.4,0.4,5.6,3.8,4.6,7.1c-0.4,1.2-1,2.2-2.1,2.9
			c-0.3,0.2-0.5,0.6-0.5,1C15.1,13.6,15.1,13.8,15.1,13.9z M14.8,20.3C14.9,20.3,14.9,20.3,14.8,20.3c0.9-0.4,1.3-1.1,1.4-1.9
			c0-0.5,0-1.1,0-1.6c0-0.3-0.2-0.6-0.6-0.6c-2.2,0-4.4,0-6.6,0c-0.4,0-0.6,0.2-0.6,0.6c0,0.5,0,1,0,1.4c0,0.9,0.4,1.6,1.2,2
			c0.2,0.1,0.2,0.2,0.2,0.3c0,0.7,0.6,1.3,1.3,1.3c0.8,0,1.6,0,2.4,0c0.6,0,1.1-0.4,1.3-1.1C14.8,20.7,14.8,20.5,14.8,20.3z M12,7.8
			c0-0.1,0.1-0.2,0.1-0.2c0.2-0.6,0.4-1.1,0.6-1.7c0.1-0.3,0-0.7-0.3-0.8c-0.3-0.1-0.6,0-0.7,0.4c-0.3,0.9-0.7,1.7-1,2.6
			c-0.2,0.5,0.1,0.8,0.6,0.8c0.4,0,0.9,0,1.3,0c0.1,0,0.1,0,0.2,0c0,0.1,0,0.2-0.1,0.2c-0.2,0.6-0.4,1.1-0.6,1.7c0,0.1,0,0.3,0,0.5
			c0.1,0.2,0.3,0.3,0.5,0.3c0.2,0,0.4-0.1,0.5-0.4c0.3-0.9,0.6-1.7,1-2.6c0.2-0.5,0-0.9-0.6-0.9C13,7.8,12.5,7.8,12,7.8z M5.1,11.2
			c-0.1,0-0.2,0-0.3,0.1c-0.6,0.4-1.2,0.8-1.8,1.2c-0.3,0.2-0.3,0.5-0.2,0.8c0.2,0.3,0.5,0.4,0.8,0.2c0.6-0.4,1.2-0.8,1.8-1.2
			c0.2-0.1,0.3-0.4,0.2-0.6C5.6,11.4,5.4,11.3,5.1,11.2z M3.4,2.6C3.1,2.6,2.9,2.7,2.8,3c-0.1,0.2,0,0.5,0.2,0.6
			C3.6,4,4.2,4.3,4.7,4.7C5,4.9,5.4,4.8,5.5,4.5c0.2-0.3,0.1-0.6-0.2-0.8C4.8,3.4,4.3,3,3.7,2.7C3.6,2.6,3.5,2.6,3.4,2.6z M21.3,2.6
			c-0.1,0-0.2,0-0.3,0.1c-0.6,0.4-1.2,0.7-1.7,1.1C19,4,19,4.3,19.1,4.5c0.2,0.3,0.5,0.3,0.8,0.2c0.1,0,0.1-0.1,0.2-0.1
			c0.5-0.3,1-0.7,1.5-1c0.2-0.2,0.3-0.4,0.2-0.7C21.7,2.7,21.5,2.6,21.3,2.6z M19.6,11.3c-0.3,0-0.5,0.2-0.5,0.4
			c-0.1,0.2,0,0.5,0.2,0.6c0.5,0.4,1.1,0.7,1.6,1.1c0.3,0.2,0.6,0.1,0.8-0.1c0.2-0.3,0.1-0.6-0.2-0.8c-0.5-0.4-1.1-0.7-1.6-1.1
			C19.8,11.4,19.7,11.3,19.6,11.3z M21.9,7.5c-0.3,0-0.6,0-0.9,0c-0.3,0-0.6,0.2-0.6,0.5c0,0.3,0.2,0.6,0.6,0.6c0.6,0,1.2,0,1.8,0
			c0.3,0,0.6-0.3,0.6-0.6c0-0.3-0.2-0.6-0.6-0.6C22.5,7.5,22.2,7.5,21.9,7.5z M2.8,8.6c0.3,0,0.6,0,0.9,0C4,8.6,4.3,8.4,4.3,8
			c0-0.3-0.2-0.6-0.6-0.6c-0.6,0-1.2,0-1.7,0C1.6,7.5,1.3,7.7,1.3,8c0,0.3,0.2,0.6,0.6,0.6C2.2,8.6,2.5,8.6,2.8,8.6z"/>
		<path class="st0" d="M15.1,13.9c0-0.1,0-0.3,0-0.4c0-0.4,0.2-0.7,0.5-1c1-0.7,1.7-1.7,2.1-2.9c1-3.3-1.2-6.6-4.6-7.1
			c-3-0.4-5.7,1.7-6.2,4.6C6.6,9.3,7.3,11.1,9,12.5c0.4,0.3,0.6,0.7,0.6,1.2c0,0.3,0,0.6,0,0.9c0,0.4-0.2,0.6-0.6,0.6
			c-0.3,0-0.6-0.2-0.6-0.6c0-0.3,0-0.6,0-0.9c0-0.1,0-0.2-0.1-0.3C7,12.3,6.1,11,5.8,9.3c-0.6-3,1-6.1,3.9-7.3c4-1.8,8.6,0.7,9.3,5
			c0.4,2.6-0.5,4.7-2.5,6.4c-0.1,0.1-0.2,0.2-0.2,0.4c0,0.3,0,0.5,0,0.8c0,0.4-0.2,0.6-0.6,0.6c-0.3,0-0.6-0.3-0.6-0.6
			C15.1,14.3,15.1,14.1,15.1,13.9z"/>
		<path class="st0" d="M14.8,20.3c0,0.2,0,0.3,0,0.5c-0.1,0.6-0.6,1-1.3,1.1c-0.8,0-1.6,0-2.4,0c-0.7,0-1.3-0.6-1.3-1.3
			c0-0.2-0.1-0.3-0.2-0.3c-0.8-0.4-1.2-1.1-1.2-2c0-0.5,0-1,0-1.4c0-0.4,0.2-0.6,0.6-0.6c2.2,0,4.4,0,6.6,0c0.4,0,0.6,0.2,0.6,0.6
			c0,0.5,0,1.1,0,1.6C16.2,19.2,15.7,19.9,14.8,20.3C14.9,20.3,14.9,20.3,14.8,20.3z M9.6,17.3c0,0.3,0,0.6,0,0.9
			c0,0.6,0.3,1,0.9,1.1c0.3,0.1,0.5,0.3,0.5,0.6c0,0.2,0,0.4,0,0.6c0,0.2,0.1,0.2,0.2,0.2c0.7,0,1.5,0,2.2,0c0.2,0,0.2-0.1,0.2-0.2
			c0-0.2,0-0.4,0-0.5c0-0.4,0.2-0.6,0.5-0.6c0.5-0.1,0.8-0.5,0.9-1c0-0.3,0-0.5,0-0.8c0-0.2,0-0.2-0.2-0.2c-1.7,0-3.4,0-5.1,0
			C9.7,17.3,9.7,17.3,9.6,17.3z"/>
		<path class="st0" d="M12,7.8c0.5,0,1,0,1.4,0c0.6,0,0.8,0.3,0.6,0.9c-0.3,0.9-0.6,1.7-1,2.6c-0.1,0.3-0.3,0.4-0.5,0.4
			c-0.2,0-0.4-0.1-0.5-0.3c0-0.1,0-0.3,0-0.5c0.2-0.6,0.4-1.1,0.6-1.7c0-0.1,0-0.1,0.1-0.2c-0.1,0-0.2,0-0.2,0c-0.4,0-0.9,0-1.3,0
			c-0.5,0-0.7-0.4-0.6-0.8c0.3-0.9,0.6-1.7,1-2.6C11.7,5.2,12,5,12.4,5.1c0.3,0.1,0.4,0.4,0.3,0.8c-0.2,0.6-0.4,1.1-0.6,1.7
			C12,7.6,12,7.7,12,7.8z"/>
		<path class="st0" d="M5.1,11.2c0.3,0,0.5,0.2,0.5,0.4c0.1,0.2,0,0.5-0.2,0.6c-0.6,0.4-1.2,0.8-1.8,1.2c-0.3,0.2-0.6,0.1-0.8-0.2
			c-0.2-0.3-0.1-0.6,0.2-0.8c0.6-0.4,1.2-0.8,1.8-1.2C4.9,11.3,5,11.3,5.1,11.2z"/>
		<path class="st0" d="M3.4,2.6c0.1,0,0.2,0.1,0.3,0.1C4.3,3,4.8,3.4,5.3,3.7c0.3,0.2,0.4,0.5,0.2,0.8C5.4,4.8,5,4.9,4.7,4.7
			C4.2,4.3,3.6,4,3.1,3.6C2.8,3.4,2.8,3.2,2.8,3C2.9,2.7,3.1,2.6,3.4,2.6z"/>
		<path class="st0" d="M21.3,2.6c0.2,0,0.5,0.2,0.5,0.4c0.1,0.2,0,0.5-0.2,0.7c-0.5,0.3-1,0.7-1.5,1c-0.1,0-0.1,0.1-0.2,0.1
			c-0.3,0.2-0.6,0.1-0.8-0.2C19,4.3,19,4,19.3,3.8C19.8,3.4,20.4,3,21,2.7C21.1,2.6,21.2,2.6,21.3,2.6z"/>
		<path class="st0" d="M19.6,11.3c0.1,0,0.2,0.1,0.3,0.1c0.5,0.3,1.1,0.7,1.6,1.1c0.3,0.2,0.4,0.5,0.2,0.8c-0.2,0.3-0.5,0.3-0.8,0.1
			c-0.5-0.4-1.1-0.7-1.6-1.1c-0.2-0.2-0.3-0.4-0.2-0.6C19.1,11.5,19.3,11.3,19.6,11.3z"/>
		<path class="st0" d="M21.9,7.5c0.3,0,0.6,0,0.9,0c0.3,0,0.6,0.2,0.6,0.6c0,0.3-0.2,0.6-0.6,0.6c-0.6,0-1.2,0-1.8,0
			c-0.3,0-0.6-0.3-0.6-0.6c0-0.3,0.3-0.5,0.6-0.5C21.3,7.5,21.6,7.5,21.9,7.5z"/>
		<path class="st0" d="M2.8,8.6c-0.3,0-0.6,0-0.8,0C1.6,8.6,1.3,8.4,1.3,8c0-0.3,0.3-0.6,0.6-0.6c0.6,0,1.2,0,1.7,0
			C4,7.5,4.3,7.7,4.3,8c0,0.3-0.2,0.6-0.6,0.6C3.4,8.6,3.1,8.6,2.8,8.6z"/>
		<path class="st1" d="M9.6,17.3c0.1,0,0.2,0,0.2,0c1.7,0,3.4,0,5.1,0c0.2,0,0.2,0,0.2,0.2c0,0.3,0,0.5,0,0.8c0,0.5-0.4,0.9-0.9,1
			c-0.4,0.1-0.5,0.3-0.5,0.6c0,0.2,0,0.4,0,0.5c0,0.2-0.1,0.2-0.2,0.2c-0.7,0-1.5,0-2.2,0c-0.2,0-0.2-0.1-0.2-0.2c0-0.2,0-0.4,0-0.6
			c0-0.3-0.2-0.5-0.5-0.6c-0.6-0.1-0.9-0.5-0.9-1.1C9.6,17.9,9.6,17.6,9.6,17.3z"/>
	</g>
</g>
</svg>
