<?xml version="1.0" encoding="utf-8"?>
<!-- Generator: Adobe Illustrator 20.1.0, SVG Export Plug-In . SVG Version: 6.00 Build 0)  -->
<svg version="1.1" id="Layer_1" xmlns="http://www.w3.org/2000/svg" xmlns:xlink="http://www.w3.org/1999/xlink" x="0px" y="0px"
	 viewBox="0 0 24 24" style="enable-background:new 0 0 24 24;" xml:space="preserve">
<style type="text/css">
	.st0{fill:#FFFFFF;}
	.st1{fill:none;stroke:#FFFFFF;stroke-miterlimit:10;}
	.st2{fill:none;}
</style>
<g id="rUXUar.tif">
	<g>
		<path class="st0" d="M20.6,13.4c0.6-0.2,1-0.5,1.2-1c0.2-0.5,0.2-1.1-0.1-1.6c0.1,0,0.2-0.1,0.2-0.1c0.7-0.3,1.2-1,1.1-1.8
			c-0.1-0.9-0.9-1.6-1.8-1.6c-2.1,0-4.1,0-6.2,0c-0.1,0-0.1,0-0.2,0c0,0,0,0,0-0.1C15,5.8,15.2,4.4,15.4,3c0-0.4,0.1-0.8,0.1-1.1
			c0-0.7-0.6-1.2-1.2-1.3c-0.7-0.1-1.3,0.3-1.6,0.9c0,0.1-0.1,0.2-0.1,0.3c-0.9,2-1.9,4-2.8,6c-0.2,0.5-0.5,0.8-1,0.9
			C8.3,8.8,8.1,9.1,8.1,9.6c0,2.8,0,5.5,0,8.3c0,0.1,0,0.2,0,0.2c0,0.4,0.4,0.7,0.8,0.7c1.7,0,3.3,0,5-0.1c1.4,0,2.8,0,4.1,0
			c1.1,0,1.9-0.9,1.8-1.9c0-0.2-0.1-0.5-0.2-0.7C20.8,15.4,21.1,14.7,20.6,13.4z M7.6,13.5c0-1.3,0-2.7,0-4c0-0.7-0.4-1.1-1.1-1.1
			c-1.3,0-2.6,0-4,0c-0.1,0-0.2,0-0.3,0C1.7,8.5,1.3,8.9,1.3,9.5c0,2.7,0,5.4,0,8.1c0,0.1,0,0.1,0,0.2c0.1,0.5,0.5,0.9,1,0.9
			c1.3,0,2.7,0,4,0c0.7,0,1.2-0.4,1.2-1.2C7.6,16.2,7.6,14.9,7.6,13.5z"/>
		<path class="st0" d="M20.6,13.4c0.5,1.3,0.2,2.1-1,2.6c0.1,0.2,0.2,0.5,0.2,0.7c0.1,1-0.7,1.9-1.8,1.9c-1.4,0-2.8,0-4.1,0
			c-1.7,0-3.3,0-5,0.1c-0.4,0-0.7-0.3-0.8-0.7c0-0.1,0-0.2,0-0.2c0-2.8,0-5.5,0-8.3c0-0.5,0.2-0.8,0.7-0.9c0.5-0.1,0.8-0.4,1-0.9
			c0.9-2,1.9-4,2.8-6c0-0.1,0.1-0.2,0.1-0.3c0.2-0.7,0.9-1,1.6-0.9c0.6,0.1,1.2,0.6,1.2,1.3c0,0.4-0.1,0.8-0.1,1.1
			c-0.2,1.4-0.4,2.9-0.6,4.3c0,0,0,0,0,0.1c0.1,0,0.1,0,0.2,0c2.1,0,4.1,0,6.2,0c0.9,0,1.7,0.7,1.8,1.6c0.1,0.7-0.4,1.5-1.1,1.8
			c-0.1,0-0.1,0-0.2,0.1c0.3,0.5,0.3,1,0.1,1.6C21.6,12.9,21.2,13.2,20.6,13.4z M13.5,18.1C13.5,18,13.5,18,13.5,18.1
			C15,18,16.5,18,18,18c0.6,0,1.1-0.5,1.1-1.1c0-0.4-0.2-0.7-0.5-0.9c-0.2-0.1-0.2-0.2-0.2-0.4c0.1-0.2,0.2-0.2,0.4-0.2
			c0.1,0,0.2,0,0.3,0c0.5,0,0.9-0.3,1-0.8c0.1-0.4,0-0.9-0.4-1.2c-0.2-0.1-0.3-0.3-0.2-0.4c0.1-0.2,0.2-0.2,0.4-0.2
			c0.2,0,0.3,0,0.5,0c0.4-0.1,0.8-0.4,0.8-0.9c0.1-0.4-0.1-0.8-0.5-1.1c-0.2-0.1-0.3-0.2-0.2-0.4c0-0.2,0.2-0.2,0.4-0.2
			c0.1,0,0.2,0,0.3,0c0.6,0,1-0.5,1-1c0-0.6-0.5-1.1-1.1-1.1c-2.2,0-4.3,0-6.5,0c-0.6,0-0.7-0.1-0.6-0.7c0.2-1.8,0.5-3.5,0.7-5.3
			c0-0.1,0-0.1,0-0.2c-0.1-0.3-0.3-0.6-0.7-0.6c-0.3,0-0.6,0.2-0.7,0.5c0,0.1,0,0.1-0.1,0.2c-1.1,2.3-2.1,4.6-3.2,6.8
			C10,8.9,9.9,9,9.8,9C9.5,9.1,9.3,9.2,9,9.3c-0.2,0-0.2,0.1-0.2,0.3c0,2.7,0,5.5,0,8.2c0,0.3,0,0.3,0.3,0.3
			C10.6,18.1,12.1,18.1,13.5,18.1z"/>
		<path class="st0" d="M7.6,13.5c0,1.3,0,2.7,0,4c0,0.7-0.4,1.2-1.2,1.2c-1.3,0-2.7,0-4,0c-0.5,0-1-0.4-1-0.9c0-0.1,0-0.1,0-0.2
			c0-2.7,0-5.4,0-8.1c0-0.6,0.3-1,0.8-1.1c0.1,0,0.2,0,0.3,0c1.3,0,2.6,0,4,0c0.7,0,1.1,0.4,1.1,1.1C7.6,10.8,7.6,12.2,7.6,13.5z
			 M2,13.5C2,13.5,2,13.5,2,13.5c0,1.3,0,2.7,0,4c0,0.4,0.1,0.5,0.5,0.5c1.3,0,2.6,0,3.9,0c0.4,0,0.5-0.1,0.5-0.5c0-2.7,0-5.4,0-8.1
			C6.9,9.2,6.8,9,6.4,9C5.1,9,3.8,9,2.5,9C2.1,9,2,9.2,2,9.5C2,10.9,2,12.2,2,13.5z"/>
		<path class="st1" d="M13.5,18.1c-1.5,0-3,0-4.5,0c-0.3,0-0.3,0-0.3-0.3c0-2.7,0-5.5,0-8.2c0-0.2,0-0.3,0.2-0.3
			C9.3,9.2,9.5,9.1,9.8,9c0.1,0,0.2-0.1,0.3-0.3c1.1-2.3,2.1-4.6,3.2-6.8c0-0.1,0.1-0.1,0.1-0.2c0.1-0.3,0.4-0.5,0.7-0.5
			c0.3,0,0.6,0.3,0.7,0.6c0,0.1,0,0.1,0,0.2c-0.2,1.8-0.5,3.5-0.7,5.3C14,7.9,14.1,8,14.7,8c2.2,0,4.3,0,6.5,0
			c0.6,0,1.2,0.5,1.1,1.1c0,0.6-0.5,1-1,1c-0.1,0-0.2,0-0.3,0c-0.2,0-0.4,0.1-0.4,0.2c-0.1,0.2,0,0.3,0.2,0.4
			c0.4,0.2,0.5,0.6,0.5,1.1c-0.1,0.4-0.4,0.8-0.8,0.9c-0.2,0-0.3,0-0.5,0c-0.2,0-0.4,0-0.4,0.2c-0.1,0.2,0,0.3,0.2,0.4
			c0.4,0.3,0.6,0.7,0.4,1.2c-0.1,0.5-0.5,0.8-1,0.8c-0.1,0-0.2,0-0.3,0c-0.2,0-0.3,0.1-0.4,0.2c-0.1,0.2,0,0.3,0.2,0.4
			c0.3,0.2,0.5,0.5,0.5,0.9c0,0.6-0.5,1.1-1.1,1.1C16.5,18,15,18,13.5,18.1C13.5,18,13.5,18,13.5,18.1z"/>
		<path class="st2" d="M2,13.5c0-1.3,0-2.7,0-4C2,9.2,2.1,9,2.5,9c1.3,0,2.6,0,3.9,0c0.4,0,0.5,0.1,0.5,0.5c0,2.7,0,5.4,0,8.1
			c0,0.4-0.1,0.5-0.5,0.5c-1.3,0-2.6,0-3.9,0c-0.4,0-0.5-0.1-0.5-0.5C2,16.2,2,14.9,2,13.5C2,13.5,2,13.5,2,13.5z M4.4,17.5
			c0.5,0,1-0.4,1-1c0-0.5-0.4-1-1-1c-0.5,0-1,0.4-1,1C3.4,17.1,3.8,17.5,4.4,17.5z"/>
		<path class="st0" d="M4.4,17.5c-0.5,0-1-0.4-1-1c0-0.5,0.4-1,1-1c0.5,0,1,0.4,1,1C5.4,17.1,4.9,17.5,4.4,17.5z M4.7,16.6
			c0-0.2-0.1-0.3-0.3-0.3c-0.2,0-0.3,0.1-0.3,0.3c0,0.2,0.1,0.3,0.3,0.3C4.5,16.8,4.7,16.7,4.7,16.6z"/>
		
			<ellipse transform="matrix(2.066874e-03 -1 1 2.066874e-03 -12.1778 20.9026)" class="st0" cx="4.4" cy="16.6" rx="0.3" ry="0.3"/>
	</g>
</g>
</svg>
